<svg width="116" height="24" viewBox="0 0 116 24" fill="none" xmlns="http://www.w3.org/2000/svg">
<g clip-path="url(#clip0_4_67)">
<path d="M9.01047 7.244C8.94519 7.094 8.80119 7 8.64471 7C8.48919 7 8.34519 7.094 8.27991 7.244L6.95223 10.238L4.07799 11.618C3.93399 11.686 3.84375 11.836 3.84375 12.001C3.84375 12.167 3.93399 12.314 4.07799 12.382L6.95223 13.765L8.27703 16.756C8.34231 16.905 8.48631 17 8.64279 17C8.79831 17 8.94231 16.905 9.00759 16.756L10.3353 13.762L13.2095 12.379C13.3525 12.311 13.4438 12.161 13.4438 11.999C13.4438 11.836 13.3525 11.686 13.2095 11.618L10.3382 10.238L9.01047 7.244Z" fill="#00F6FF"/>
<path opacity="0.4" d="M13.6247 6.219L15.0378 5.667L15.5677 4.195C15.61 4.078 15.7175 4 15.8375 4C15.9575 4 16.065 4.078 16.1073 4.195L16.6372 5.667L18.0503 6.219C18.1626 6.263 18.2375 6.375 18.2375 6.5C18.2375 6.625 18.1626 6.737 18.0503 6.781L16.6372 7.333L16.1073 8.805C16.065 8.922 15.9575 9 15.8375 9C15.7175 9 15.61 8.922 15.5677 8.805L15.0378 7.333L13.6247 6.781C13.5124 6.737 13.4375 6.625 13.4375 6.5C13.4375 6.375 13.5124 6.263 13.6247 6.219Z" fill="#00F6FF"/>
<path opacity="0.4" d="M15.3575 16L13.6621 16.663C13.5277 16.716 13.4375 16.85 13.4375 17C13.4375 17.15 13.5277 17.284 13.6621 17.337L15.3575 18L15.994 19.766C16.0449 19.906 16.1735 20 16.3175 20C16.4615 20 16.5901 19.906 16.641 19.766L17.2775 18L18.9729 17.337C19.1073 17.284 19.1975 17.15 19.1975 17C19.1975 16.85 19.1073 16.716 18.9729 16.663L17.2775 16L16.641 14.234C16.5901 14.094 16.4615 14 16.3175 14C16.1735 14 16.0449 14.094 15.994 14.234L15.3575 16Z" fill="#00F6FF"/>
</g>
<path d="M25.596 17.5V7.7H26.632V17.5H25.596ZM33.3626 10.08C33.9599 10.08 34.4826 10.1967 34.9306 10.43C35.3879 10.654 35.7426 10.9993 35.9946 11.466C36.2559 11.9327 36.3866 12.5207 36.3866 13.23V17.5H35.3926V13.328C35.3926 12.5533 35.1966 11.97 34.8046 11.578C34.4219 11.1767 33.8806 10.976 33.1806 10.976C32.6579 10.976 32.2006 11.0833 31.8086 11.298C31.4259 11.5033 31.1273 11.8067 30.9126 12.208C30.7073 12.6 30.6046 13.076 30.6046 13.636V17.5H29.6106V10.15H30.5626V12.166L30.4086 11.788C30.6419 11.256 31.0153 10.8407 31.5286 10.542C32.0419 10.234 32.6533 10.08 33.3626 10.08ZM41.3955 17.57C40.7049 17.57 40.1729 17.3833 39.7995 17.01C39.4262 16.6367 39.2395 16.1093 39.2395 15.428V8.526H40.2335V15.372C40.2335 15.8013 40.3409 16.1327 40.5555 16.366C40.7795 16.5993 41.0969 16.716 41.5075 16.716C41.9462 16.716 42.3102 16.59 42.5995 16.338L42.9495 17.052C42.7535 17.2293 42.5155 17.36 42.2355 17.444C41.9649 17.528 41.6849 17.57 41.3955 17.57ZM37.9235 10.976V10.15H42.4735V10.976H37.9235ZM44.759 17.5V10.15H45.711V12.152L45.613 11.802C45.8184 11.242 46.1637 10.8173 46.649 10.528C47.1344 10.2293 47.7364 10.08 48.455 10.08V11.046C48.4177 11.046 48.3804 11.046 48.343 11.046C48.3057 11.0367 48.2684 11.032 48.231 11.032C47.4564 11.032 46.8497 11.27 46.411 11.746C45.9724 12.2127 45.753 12.88 45.753 13.748V17.5H44.759ZM53.1965 17.57C52.4871 17.57 51.8478 17.4113 51.2785 17.094C50.7185 16.7673 50.2751 16.324 49.9485 15.764C49.6218 15.1947 49.4585 14.546 49.4585 13.818C49.4585 13.0807 49.6218 12.432 49.9485 11.872C50.2751 11.312 50.7185 10.8733 51.2785 10.556C51.8385 10.2387 52.4778 10.08 53.1965 10.08C53.9245 10.08 54.5685 10.2387 55.1285 10.556C55.6978 10.8733 56.1411 11.312 56.4585 11.872C56.7851 12.432 56.9485 13.0807 56.9485 13.818C56.9485 14.546 56.7851 15.1947 56.4585 15.764C56.1411 16.324 55.6978 16.7673 55.1285 17.094C54.5591 17.4113 53.9151 17.57 53.1965 17.57ZM53.1965 16.688C53.7285 16.688 54.1998 16.5713 54.6105 16.338C55.0211 16.0953 55.3431 15.7593 55.5765 15.33C55.8191 14.8913 55.9405 14.3873 55.9405 13.818C55.9405 13.2393 55.8191 12.7353 55.5765 12.306C55.3431 11.8767 55.0211 11.5453 54.6105 11.312C54.1998 11.0693 53.7331 10.948 53.2105 10.948C52.6878 10.948 52.2211 11.0693 51.8105 11.312C51.3998 11.5453 51.0731 11.8767 50.8305 12.306C50.5878 12.7353 50.4665 13.2393 50.4665 13.818C50.4665 14.3873 50.5878 14.8913 50.8305 15.33C51.0731 15.7593 51.3998 16.0953 51.8105 16.338C52.2211 16.5713 52.6831 16.688 53.1965 16.688ZM61.9038 17.57C61.2038 17.57 60.5738 17.4113 60.0138 17.094C59.4631 16.7767 59.0291 16.338 58.7118 15.778C58.3945 15.2087 58.2358 14.5553 58.2358 13.818C58.2358 13.0713 58.3945 12.418 58.7118 11.858C59.0291 11.298 59.4631 10.864 60.0138 10.556C60.5738 10.2387 61.2038 10.08 61.9038 10.08C62.5478 10.08 63.1218 10.2247 63.6258 10.514C64.1391 10.8033 64.5451 11.228 64.8438 11.788C65.1518 12.3387 65.3058 13.0153 65.3058 13.818C65.3058 14.6113 65.1565 15.288 64.8578 15.848C64.5591 16.408 64.1531 16.8373 63.6398 17.136C63.1358 17.4253 62.5571 17.57 61.9038 17.57ZM61.9738 16.688C62.4965 16.688 62.9631 16.5713 63.3738 16.338C63.7938 16.0953 64.1205 15.7593 64.3538 15.33C64.5965 14.8913 64.7178 14.3873 64.7178 13.818C64.7178 13.2393 64.5965 12.7353 64.3538 12.306C64.1205 11.8767 63.7938 11.5453 63.3738 11.312C62.9631 11.0693 62.4965 10.948 61.9738 10.948C61.4605 10.948 60.9985 11.0693 60.5878 11.312C60.1771 11.5453 59.8505 11.8767 59.6078 12.306C59.3651 12.7353 59.2438 13.2393 59.2438 13.818C59.2438 14.3873 59.3651 14.8913 59.6078 15.33C59.8505 15.7593 60.1771 16.0953 60.5878 16.338C60.9985 16.5713 61.4605 16.688 61.9738 16.688ZM64.7458 17.5V15.288L64.8438 13.804L64.7038 12.32V7.112H65.6978V17.5H64.7458ZM71.5041 17.57C70.8787 17.57 70.3327 17.4533 69.8661 17.22C69.3994 16.9867 69.0354 16.6367 68.7741 16.17C68.5221 15.7033 68.3961 15.12 68.3961 14.42V10.15H69.3901V14.308C69.3901 15.092 69.5814 15.6847 69.9641 16.086C70.3561 16.478 70.9021 16.674 71.6021 16.674C72.1154 16.674 72.5587 16.5713 72.9321 16.366C73.3147 16.1513 73.6041 15.8433 73.8001 15.442C74.0054 15.0407 74.1081 14.56 74.1081 14V10.15H75.1021V17.5H74.1501V15.484L74.3041 15.848C74.0707 16.3893 73.7067 16.814 73.2121 17.122C72.7267 17.4207 72.1574 17.57 71.5041 17.57ZM80.9243 17.57C80.1963 17.57 79.543 17.4113 78.9643 17.094C78.395 16.7673 77.947 16.324 77.6203 15.764C77.2937 15.1947 77.1303 14.546 77.1303 13.818C77.1303 13.0807 77.2937 12.432 77.6203 11.872C77.947 11.312 78.395 10.8733 78.9643 10.556C79.543 10.2387 80.1963 10.08 80.9243 10.08C81.5497 10.08 82.1143 10.2013 82.6183 10.444C83.1223 10.6867 83.519 11.0507 83.8083 11.536L83.0663 12.04C82.8143 11.6667 82.5017 11.3913 82.1283 11.214C81.755 11.0367 81.349 10.948 80.9103 10.948C80.3877 10.948 79.9163 11.0693 79.4963 11.312C79.0763 11.5453 78.745 11.8767 78.5023 12.306C78.2597 12.7353 78.1383 13.2393 78.1383 13.818C78.1383 14.3967 78.2597 14.9007 78.5023 15.33C78.745 15.7593 79.0763 16.0953 79.4963 16.338C79.9163 16.5713 80.3877 16.688 80.9103 16.688C81.349 16.688 81.755 16.5993 82.1283 16.422C82.5017 16.2447 82.8143 15.974 83.0663 15.61L83.8083 16.114C83.519 16.59 83.1223 16.954 82.6183 17.206C82.1143 17.4487 81.5497 17.57 80.9243 17.57ZM85.6516 17.5V10.15H86.6456V17.5H85.6516ZM86.1556 8.526C85.9503 8.526 85.7776 8.456 85.6376 8.316C85.4976 8.176 85.4276 8.008 85.4276 7.812C85.4276 7.616 85.4976 7.45267 85.6376 7.322C85.7776 7.182 85.9503 7.112 86.1556 7.112C86.361 7.112 86.5336 7.17733 86.6736 7.308C86.8136 7.43867 86.8836 7.602 86.8836 7.798C86.8836 8.00333 86.8136 8.176 86.6736 8.316C86.543 8.456 86.3703 8.526 86.1556 8.526ZM93.1634 10.08C93.7607 10.08 94.2834 10.1967 94.7314 10.43C95.1887 10.654 95.5434 10.9993 95.7954 11.466C96.0567 11.9327 96.1874 12.5207 96.1874 13.23V17.5H95.1934V13.328C95.1934 12.5533 94.9974 11.97 94.6054 11.578C94.2227 11.1767 93.6814 10.976 92.9814 10.976C92.4587 10.976 92.0014 11.0833 91.6094 11.298C91.2267 11.5033 90.9281 11.8067 90.7134 12.208C90.5081 12.6 90.4054 13.076 90.4054 13.636V17.5H89.4114V10.15H90.3634V12.166L90.2094 11.788C90.4427 11.256 90.8161 10.8407 91.3294 10.542C91.8427 10.234 92.4541 10.08 93.1634 10.08ZM102.008 20.286C101.336 20.286 100.692 20.188 100.076 19.992C99.4603 19.796 98.961 19.516 98.5783 19.152L99.0823 18.396C99.4277 18.704 99.8523 18.9467 100.356 19.124C100.87 19.3107 101.411 19.404 101.98 19.404C102.914 19.404 103.6 19.1847 104.038 18.746C104.477 18.3167 104.696 17.6447 104.696 16.73V14.896L104.836 13.636L104.738 12.376V10.15H105.69V16.604C105.69 17.8733 105.378 18.802 104.752 19.39C104.136 19.9873 103.222 20.286 102.008 20.286ZM101.826 17.22C101.126 17.22 100.496 17.0707 99.9363 16.772C99.3763 16.464 98.933 16.0393 98.6063 15.498C98.289 14.9567 98.1303 14.336 98.1303 13.636C98.1303 12.936 98.289 12.32 98.6063 11.788C98.933 11.2467 99.3763 10.8267 99.9363 10.528C100.496 10.2293 101.126 10.08 101.826 10.08C102.48 10.08 103.068 10.2153 103.59 10.486C104.113 10.7567 104.528 11.158 104.836 11.69C105.144 12.222 105.298 12.8707 105.298 13.636C105.298 14.4013 105.144 15.05 104.836 15.582C104.528 16.114 104.113 16.52 103.59 16.8C103.068 17.08 102.48 17.22 101.826 17.22ZM101.924 16.338C102.466 16.338 102.946 16.226 103.366 16.002C103.786 15.7687 104.118 15.4513 104.36 15.05C104.603 14.6393 104.724 14.168 104.724 13.636C104.724 13.104 104.603 12.6373 104.36 12.236C104.118 11.8347 103.786 11.522 103.366 11.298C102.946 11.0647 102.466 10.948 101.924 10.948C101.392 10.948 100.912 11.0647 100.482 11.298C100.062 11.522 99.731 11.8347 99.4883 12.236C99.255 12.6373 99.1383 13.104 99.1383 13.636C99.1383 14.168 99.255 14.6393 99.4883 15.05C99.731 15.4513 100.062 15.7687 100.482 16.002C100.912 16.226 101.392 16.338 101.924 16.338Z" fill="url(#paint0_linear_4_67)"/>
<defs>
<linearGradient id="paint0_linear_4_67" x1="24" y1="12" x2="108" y2="12" gradientUnits="userSpaceOnUse">
<stop stop-color="#00F6FF"/>
<stop offset="0.149038" stop-color="#EE57FF"/>
<stop offset="0.504808" stop-color="#FFA85B"/>
<stop offset="1" stop-color="#58FF98"/>
</linearGradient>
<clipPath id="clip0_4_67">
<rect width="24" height="24" fill="white"/>
</clipPath>
</defs>
</svg>
