<svg width="860" height="144" viewBox="0 0 860 144" fill="none" xmlns="http://www.w3.org/2000/svg">
<path d="M21.684 59.046V38.142L23.478 42.978L1.17039e-05 4.44599H8.34601L28.08 36.972H23.556L43.368 4.44599H51.09L27.69 42.978L29.406 38.142V59.046H21.684ZM70.9715 59.514C66.8115 59.514 63.1195 58.604 59.8955 56.784C56.6715 54.964 54.1235 52.468 52.2515 49.296C50.3795 46.072 49.4435 42.432 49.4435 38.376C49.4435 34.268 50.3795 30.628 52.2515 27.456C54.1235 24.284 56.6715 21.814 59.8955 20.046C63.1195 18.226 66.8115 17.316 70.9715 17.316C75.0795 17.316 78.7455 18.226 81.9695 20.046C85.2455 21.814 87.7935 24.284 89.6135 27.456C91.4855 30.576 92.4215 34.216 92.4215 38.376C92.4215 42.484 91.4855 46.124 89.6135 49.296C87.7935 52.468 85.2455 54.964 81.9695 56.784C78.7455 58.604 75.0795 59.514 70.9715 59.514ZM70.9715 52.962C73.6235 52.962 75.9895 52.364 78.0695 51.168C80.2015 49.972 81.8655 48.282 83.0615 46.098C84.2575 43.862 84.8555 41.288 84.8555 38.376C84.8555 35.412 84.2575 32.864 83.0615 30.732C81.8655 28.548 80.2015 26.858 78.0695 25.662C75.9895 24.466 73.6235 23.868 70.9715 23.868C68.3195 23.868 65.9535 24.466 63.8735 25.662C61.7935 26.858 60.1295 28.548 58.8815 30.732C57.6335 32.864 57.0095 35.412 57.0095 38.376C57.0095 41.288 57.6335 43.862 58.8815 46.098C60.1295 48.282 61.7935 49.972 63.8735 51.168C65.9535 52.364 68.3195 52.962 70.9715 52.962ZM120.171 59.514C116.635 59.514 113.515 58.864 110.811 57.564C108.159 56.264 106.079 54.288 104.571 51.636C103.115 48.932 102.387 45.552 102.387 41.496V17.706H109.875V40.638C109.875 44.694 110.837 47.736 112.761 49.764C114.737 51.792 117.493 52.806 121.029 52.806C123.629 52.806 125.891 52.286 127.815 51.246C129.739 50.154 131.221 48.594 132.261 46.566C133.301 44.486 133.821 41.99 133.821 39.078V17.706H141.309V59.046H134.211V47.892L135.381 50.856C134.029 53.612 132.001 55.744 129.297 57.252C126.593 58.76 123.551 59.514 120.171 59.514ZM152.6 22.464L156.5 6.62999L157.514 11.154C156.006 11.154 154.732 10.686 153.692 9.74999C152.704 8.81399 152.21 7.56599 152.21 6.00599C152.21 4.39399 152.704 3.11999 153.692 2.18399C154.732 1.19599 155.98 0.701988 157.436 0.701988C158.944 0.701988 160.166 1.22199 161.102 2.26199C162.038 3.24999 162.506 4.49799 162.506 6.00599C162.506 6.47399 162.48 6.96799 162.428 7.48799C162.376 7.95599 162.246 8.50199 162.038 9.12599C161.882 9.74999 161.622 10.556 161.258 11.544L157.514 22.464H152.6ZM173.236 59.046V17.706H180.412V28.938L179.71 26.13C180.854 23.27 182.778 21.086 185.482 19.578C188.186 18.07 191.514 17.316 195.466 17.316V24.57C195.154 24.518 194.842 24.492 194.53 24.492C194.27 24.492 194.01 24.492 193.75 24.492C189.746 24.492 186.574 25.688 184.234 28.08C181.894 30.472 180.724 33.93 180.724 38.454V59.046H173.236ZM251.838 59.046V50.31L251.448 48.672V33.774C251.448 30.602 250.512 28.158 248.64 26.442C246.82 24.674 244.064 23.79 240.372 23.79C237.928 23.79 235.536 24.206 233.196 25.038C230.856 25.818 228.88 26.884 227.268 28.236L224.148 22.62C226.28 20.904 228.828 19.604 231.792 18.72C234.808 17.784 237.954 17.316 241.23 17.316C246.898 17.316 251.266 18.694 254.334 21.45C257.402 24.206 258.936 28.418 258.936 34.086V59.046H251.838ZM238.266 59.514C235.198 59.514 232.494 58.994 230.154 57.954C227.866 56.914 226.098 55.484 224.85 53.664C223.602 51.792 222.978 49.686 222.978 47.346C222.978 45.11 223.498 43.082 224.538 41.262C225.63 39.442 227.372 37.986 229.764 36.894C232.208 35.802 235.484 35.256 239.592 35.256H252.696V40.638H239.904C236.16 40.638 233.638 41.262 232.338 42.51C231.038 43.758 230.388 45.266 230.388 47.034C230.388 49.062 231.194 50.7 232.806 51.948C234.418 53.144 236.654 53.742 239.514 53.742C242.322 53.742 244.766 53.118 246.846 51.87C248.978 50.622 250.512 48.802 251.448 46.41L252.93 51.558C251.942 54.002 250.2 55.952 247.704 57.408C245.208 58.812 242.062 59.514 238.266 59.514ZM272.793 59.046V1.16999H280.281V59.046H272.793ZM294.578 59.046V1.16999H302.066V59.046H294.578ZM313.711 40.872V34.398H334.693V40.872H313.711ZM346.223 59.046V17.706H353.711V59.046H346.223ZM349.967 9.74999C348.511 9.74999 347.289 9.28199 346.301 8.34599C345.365 7.40999 344.897 6.26599 344.897 4.91399C344.897 3.50999 345.365 2.33999 346.301 1.40399C347.289 0.467988 348.511 -1.22786e-05 349.967 -1.22786e-05C351.423 -1.22786e-05 352.619 0.467988 353.555 1.40399C354.543 2.28799 355.037 3.40599 355.037 4.75799C355.037 6.16199 354.569 7.35799 353.633 8.34599C352.697 9.28199 351.475 9.74999 349.967 9.74999ZM390.082 17.316C393.462 17.316 396.426 17.966 398.974 19.266C401.574 20.566 403.602 22.542 405.058 25.194C406.514 27.846 407.242 31.2 407.242 35.256V59.046H399.754V36.114C399.754 32.11 398.766 29.094 396.79 27.066C394.866 25.038 392.136 24.024 388.6 24.024C385.948 24.024 383.634 24.544 381.658 25.584C379.682 26.624 378.148 28.158 377.056 30.186C376.016 32.214 375.496 34.736 375.496 37.752V59.046H368.008V17.706H375.184V28.86L374.014 25.896C375.366 23.192 377.446 21.086 380.254 19.578C383.062 18.07 386.338 17.316 390.082 17.316ZM418.447 40.872V34.398H439.429V40.872H418.447ZM469.427 59.514C465.267 59.514 461.575 58.604 458.351 56.784C455.127 54.964 452.579 52.468 450.707 49.296C448.835 46.072 447.899 42.432 447.899 38.376C447.899 34.268 448.835 30.628 450.707 27.456C452.579 24.284 455.127 21.814 458.351 20.046C461.575 18.226 465.267 17.316 469.427 17.316C473.535 17.316 477.201 18.226 480.425 20.046C483.701 21.814 486.249 24.284 488.069 27.456C489.941 30.576 490.877 34.216 490.877 38.376C490.877 42.484 489.941 46.124 488.069 49.296C486.249 52.468 483.701 54.964 480.425 56.784C477.201 58.604 473.535 59.514 469.427 59.514ZM469.427 52.962C472.079 52.962 474.445 52.364 476.525 51.168C478.657 49.972 480.321 48.282 481.517 46.098C482.713 43.862 483.311 41.288 483.311 38.376C483.311 35.412 482.713 32.864 481.517 30.732C480.321 28.548 478.657 26.858 476.525 25.662C474.445 24.466 472.079 23.868 469.427 23.868C466.775 23.868 464.409 24.466 462.329 25.662C460.249 26.858 458.585 28.548 457.337 30.732C456.089 32.864 455.465 35.412 455.465 38.376C455.465 41.288 456.089 43.862 457.337 46.098C458.585 48.282 460.249 49.972 462.329 51.168C464.409 52.364 466.775 52.962 469.427 52.962ZM523.306 17.316C526.686 17.316 529.65 17.966 532.198 19.266C534.798 20.566 536.826 22.542 538.282 25.194C539.738 27.846 540.466 31.2 540.466 35.256V59.046H532.978V36.114C532.978 32.11 531.99 29.094 530.014 27.066C528.09 25.038 525.36 24.024 521.824 24.024C519.172 24.024 516.858 24.544 514.882 25.584C512.906 26.624 511.372 28.158 510.28 30.186C509.24 32.214 508.72 34.736 508.72 37.752V59.046H501.232V17.706H508.408V28.86L507.238 25.896C508.59 23.192 510.67 21.086 513.478 19.578C516.286 18.07 519.562 17.316 523.306 17.316ZM572.732 59.514C568.312 59.514 564.412 58.604 561.032 56.784C557.704 54.964 555.104 52.468 553.232 49.296C551.412 46.124 550.502 42.484 550.502 38.376C550.502 34.268 551.386 30.628 553.154 27.456C554.974 24.284 557.444 21.814 560.564 20.046C563.736 18.226 567.298 17.316 571.25 17.316C575.254 17.316 578.79 18.2 581.858 19.968C584.926 21.736 587.318 24.232 589.034 27.456C590.802 30.628 591.686 34.346 591.686 38.61C591.686 38.922 591.66 39.286 591.608 39.702C591.608 40.118 591.582 40.508 591.53 40.872H556.352V35.49H587.63L584.588 37.362C584.64 34.71 584.094 32.344 582.95 30.264C581.806 28.184 580.22 26.572 578.192 25.428C576.216 24.232 573.902 23.634 571.25 23.634C568.65 23.634 566.336 24.232 564.308 25.428C562.28 26.572 560.694 28.21 559.55 30.342C558.406 32.422 557.834 34.814 557.834 37.518V38.766C557.834 41.522 558.458 43.992 559.706 46.176C561.006 48.308 562.8 49.972 565.088 51.168C567.376 52.364 570.002 52.962 572.966 52.962C575.41 52.962 577.62 52.546 579.596 51.714C581.624 50.882 583.392 49.634 584.9 47.97L589.034 52.806C587.162 54.99 584.822 56.654 582.014 57.798C579.258 58.942 576.164 59.514 572.732 59.514ZM640.737 59.514C636.577 59.514 632.885 58.604 629.661 56.784C626.437 54.964 623.889 52.468 622.017 49.296C620.145 46.072 619.209 42.432 619.209 38.376C619.209 34.268 620.145 30.628 622.017 27.456C623.889 24.284 626.437 21.814 629.661 20.046C632.885 18.226 636.577 17.316 640.737 17.316C644.845 17.316 648.511 18.226 651.735 20.046C655.011 21.814 657.559 24.284 659.379 27.456C661.251 30.576 662.187 34.216 662.187 38.376C662.187 42.484 661.251 46.124 659.379 49.296C657.559 52.468 655.011 54.964 651.735 56.784C648.511 58.604 644.845 59.514 640.737 59.514ZM640.737 52.962C643.389 52.962 645.755 52.364 647.835 51.168C649.967 49.972 651.631 48.282 652.827 46.098C654.023 43.862 654.621 41.288 654.621 38.376C654.621 35.412 654.023 32.864 652.827 30.732C651.631 28.548 649.967 26.858 647.835 25.662C645.755 24.466 643.389 23.868 640.737 23.868C638.085 23.868 635.719 24.466 633.639 25.662C631.559 26.858 629.895 28.548 628.647 30.732C627.399 32.864 626.775 35.412 626.775 38.376C626.775 41.288 627.399 43.862 628.647 46.098C629.895 48.282 631.559 49.972 633.639 51.168C635.719 52.364 638.085 52.962 640.737 52.962ZM694.617 17.316C697.997 17.316 700.961 17.966 703.509 19.266C706.109 20.566 708.137 22.542 709.593 25.194C711.049 27.846 711.777 31.2 711.777 35.256V59.046H704.289V36.114C704.289 32.11 703.301 29.094 701.325 27.066C699.401 25.038 696.671 24.024 693.135 24.024C690.483 24.024 688.169 24.544 686.193 25.584C684.217 26.624 682.683 28.158 681.591 30.186C680.551 32.214 680.031 34.736 680.031 37.752V59.046H672.543V17.706H679.719V28.86L678.549 25.896C679.901 23.192 681.981 21.086 684.789 19.578C687.597 18.07 690.873 17.316 694.617 17.316ZM725.635 59.046V1.16999H733.123V59.046H725.635ZM747.42 59.046V17.706H754.908V59.046H747.42ZM751.164 9.74999C749.708 9.74999 748.486 9.28199 747.498 8.34599C746.562 7.40999 746.094 6.26599 746.094 4.91399C746.094 3.50999 746.562 2.33999 747.498 1.40399C748.486 0.467988 749.708 -1.22786e-05 751.164 -1.22786e-05C752.62 -1.22786e-05 753.816 0.467988 754.752 1.40399C755.74 2.28799 756.234 3.40599 756.234 4.75799C756.234 6.16199 755.766 7.35799 754.83 8.34599C753.894 9.28199 752.672 9.74999 751.164 9.74999ZM791.279 17.316C794.659 17.316 797.623 17.966 800.171 19.266C802.771 20.566 804.799 22.542 806.255 25.194C807.711 27.846 808.439 31.2 808.439 35.256V59.046H800.951V36.114C800.951 32.11 799.963 29.094 797.987 27.066C796.063 25.038 793.333 24.024 789.797 24.024C787.145 24.024 784.831 24.544 782.855 25.584C780.879 26.624 779.345 28.158 778.253 30.186C777.213 32.214 776.693 34.736 776.693 37.752V59.046H769.205V17.706H776.381V28.86L775.211 25.896C776.563 23.192 778.643 21.086 781.451 19.578C784.259 18.07 787.535 17.316 791.279 17.316ZM840.705 59.514C836.285 59.514 832.385 58.604 829.005 56.784C825.677 54.964 823.077 52.468 821.205 49.296C819.385 46.124 818.475 42.484 818.475 38.376C818.475 34.268 819.359 30.628 821.127 27.456C822.947 24.284 825.417 21.814 828.537 20.046C831.709 18.226 835.271 17.316 839.223 17.316C843.227 17.316 846.763 18.2 849.831 19.968C852.899 21.736 855.291 24.232 857.007 27.456C858.775 30.628 859.659 34.346 859.659 38.61C859.659 38.922 859.633 39.286 859.581 39.702C859.581 40.118 859.555 40.508 859.503 40.872H824.325V35.49H855.603L852.561 37.362C852.613 34.71 852.067 32.344 850.923 30.264C849.779 28.184 848.193 26.572 846.165 25.428C844.189 24.232 841.875 23.634 839.223 23.634C836.623 23.634 834.309 24.232 832.281 25.428C830.253 26.572 828.667 28.21 827.523 30.342C826.379 32.422 825.807 34.814 825.807 37.518V38.766C825.807 41.522 826.431 43.992 827.679 46.176C828.979 48.308 830.773 49.972 833.061 51.168C835.349 52.364 837.975 52.962 840.939 52.962C843.383 52.962 845.593 52.546 847.569 51.714C849.597 50.882 851.365 49.634 852.873 47.97L857.007 52.806C855.135 54.99 852.795 56.654 849.987 57.798C847.231 58.942 844.137 59.514 840.705 59.514Z" fill="#262E35"/>
<path d="M274.877 143.514C270.717 143.514 267.493 142.396 265.205 140.16C262.917 137.924 261.773 134.726 261.773 130.566V92.658H269.261V130.254C269.261 132.49 269.807 134.206 270.899 135.402C272.043 136.598 273.655 137.196 275.735 137.196C278.075 137.196 280.025 136.546 281.585 135.246L283.925 140.628C282.781 141.616 281.403 142.344 279.791 142.812C278.231 143.28 276.593 143.514 274.877 143.514ZM254.753 107.868V101.706H281.117V107.868H254.753ZM309.313 143.514C305.153 143.514 301.461 142.604 298.237 140.784C295.013 138.964 292.465 136.468 290.593 133.296C288.721 130.072 287.785 126.432 287.785 122.376C287.785 118.268 288.721 114.628 290.593 111.456C292.465 108.284 295.013 105.814 298.237 104.046C301.461 102.226 305.153 101.316 309.313 101.316C313.421 101.316 317.087 102.226 320.311 104.046C323.587 105.814 326.135 108.284 327.955 111.456C329.827 114.576 330.763 118.216 330.763 122.376C330.763 126.484 329.827 130.124 327.955 133.296C326.135 136.468 323.587 138.964 320.311 140.784C317.087 142.604 313.421 143.514 309.313 143.514ZM309.313 136.962C311.965 136.962 314.331 136.364 316.411 135.168C318.543 133.972 320.207 132.282 321.403 130.098C322.599 127.862 323.197 125.288 323.197 122.376C323.197 119.412 322.599 116.864 321.403 114.732C320.207 112.548 318.543 110.858 316.411 109.662C314.331 108.466 311.965 107.868 309.313 107.868C306.661 107.868 304.295 108.466 302.215 109.662C300.135 110.858 298.471 112.548 297.223 114.732C295.975 116.864 295.351 119.412 295.351 122.376C295.351 125.288 295.975 127.862 297.223 130.098C298.471 132.282 300.135 133.972 302.215 135.168C304.295 136.364 306.661 136.962 309.313 136.962ZM358.825 143.514C354.665 143.514 350.973 142.604 347.749 140.784C344.525 138.964 341.977 136.468 340.105 133.296C338.233 130.072 337.297 126.432 337.297 122.376C337.297 118.268 338.233 114.628 340.105 111.456C341.977 108.284 344.525 105.814 347.749 104.046C350.973 102.226 354.665 101.316 358.825 101.316C362.933 101.316 366.599 102.226 369.823 104.046C373.099 105.814 375.647 108.284 377.467 111.456C379.339 114.576 380.275 118.216 380.275 122.376C380.275 126.484 379.339 130.124 377.467 133.296C375.647 136.468 373.099 138.964 369.823 140.784C366.599 142.604 362.933 143.514 358.825 143.514ZM358.825 136.962C361.477 136.962 363.843 136.364 365.923 135.168C368.055 133.972 369.719 132.282 370.915 130.098C372.111 127.862 372.709 125.288 372.709 122.376C372.709 119.412 372.111 116.864 370.915 114.732C369.719 112.548 368.055 110.858 365.923 109.662C363.843 108.466 361.477 107.868 358.825 107.868C356.173 107.868 353.807 108.466 351.727 109.662C349.647 110.858 347.983 112.548 346.735 114.732C345.487 116.864 344.863 119.412 344.863 122.376C344.863 125.288 345.487 127.862 346.735 130.098C347.983 132.282 349.647 133.972 351.727 135.168C353.807 136.364 356.173 136.962 358.825 136.962ZM390.631 143.046V85.17H398.119V143.046H390.631ZM424.272 143.514C420.84 143.514 417.564 143.046 414.444 142.11C411.376 141.174 408.958 140.03 407.19 138.678L410.31 132.75C412.078 133.946 414.262 134.96 416.862 135.792C419.462 136.624 422.114 137.04 424.818 137.04C428.302 137.04 430.798 136.546 432.306 135.558C433.866 134.57 434.646 133.192 434.646 131.424C434.646 130.124 434.178 129.11 433.242 128.382C432.306 127.654 431.058 127.108 429.498 126.744C427.99 126.38 426.3 126.068 424.428 125.808C422.556 125.496 420.684 125.132 418.812 124.716C416.94 124.248 415.224 123.624 413.664 122.844C412.104 122.012 410.856 120.894 409.92 119.49C408.984 118.034 408.516 116.11 408.516 113.718C408.516 111.222 409.218 109.038 410.622 107.166C412.026 105.294 414.002 103.864 416.55 102.876C419.15 101.836 422.218 101.316 425.754 101.316C428.458 101.316 431.188 101.654 433.944 102.33C436.752 102.954 439.04 103.864 440.808 105.06L437.61 110.988C435.738 109.74 433.788 108.882 431.76 108.414C429.732 107.946 427.704 107.712 425.676 107.712C422.4 107.712 419.956 108.258 418.344 109.35C416.732 110.39 415.926 111.742 415.926 113.406C415.926 114.81 416.394 115.902 417.33 116.682C418.318 117.41 419.566 117.982 421.074 118.398C422.634 118.814 424.35 119.178 426.222 119.49C428.094 119.75 429.966 120.114 431.838 120.582C433.71 120.998 435.4 121.596 436.908 122.376C438.468 123.156 439.716 124.248 440.652 125.652C441.64 127.056 442.134 128.928 442.134 131.268C442.134 133.764 441.406 135.922 439.95 137.742C438.494 139.562 436.44 140.992 433.788 142.032C431.136 143.02 427.964 143.514 424.272 143.514ZM494.357 143.514C490.821 143.514 487.623 142.734 484.763 141.174C481.955 139.562 479.719 137.196 478.055 134.076C476.443 130.956 475.637 127.056 475.637 122.376C475.637 117.696 476.469 113.796 478.133 110.676C479.849 107.556 482.111 105.216 484.919 103.656C487.779 102.096 490.925 101.316 494.357 101.316C498.413 101.316 502.001 102.2 505.121 103.968C508.241 105.736 510.711 108.206 512.531 111.378C514.351 114.498 515.261 118.164 515.261 122.376C515.261 126.588 514.351 130.28 512.531 133.452C510.711 136.624 508.241 139.094 505.121 140.862C502.001 142.63 498.413 143.514 494.357 143.514ZM472.439 143.046V85.17H479.927V112.704L479.147 122.298L479.615 131.892V143.046H472.439ZM493.733 136.962C496.385 136.962 498.751 136.364 500.831 135.168C502.963 133.972 504.627 132.282 505.823 130.098C507.071 127.862 507.695 125.288 507.695 122.376C507.695 119.412 507.071 116.864 505.823 114.732C504.627 112.548 502.963 110.858 500.831 109.662C498.751 108.466 496.385 107.868 493.733 107.868C491.133 107.868 488.767 108.466 486.635 109.662C484.555 110.858 482.891 112.548 481.643 114.732C480.447 116.864 479.849 119.412 479.849 122.376C479.849 125.288 480.447 127.862 481.643 130.098C482.891 132.282 484.555 133.972 486.635 135.168C488.767 136.364 491.133 136.962 493.733 136.962ZM543.313 143.514C539.153 143.514 535.461 142.604 532.237 140.784C529.013 138.964 526.465 136.468 524.593 133.296C522.721 130.072 521.785 126.432 521.785 122.376C521.785 118.268 522.721 114.628 524.593 111.456C526.465 108.284 529.013 105.814 532.237 104.046C535.461 102.226 539.153 101.316 543.313 101.316C547.421 101.316 551.087 102.226 554.311 104.046C557.587 105.814 560.135 108.284 561.955 111.456C563.827 114.576 564.763 118.216 564.763 122.376C564.763 126.484 563.827 130.124 561.955 133.296C560.135 136.468 557.587 138.964 554.311 140.784C551.087 142.604 547.421 143.514 543.313 143.514ZM543.313 136.962C545.965 136.962 548.331 136.364 550.411 135.168C552.543 133.972 554.207 132.282 555.403 130.098C556.599 127.862 557.197 125.288 557.197 122.376C557.197 119.412 556.599 116.864 555.403 114.732C554.207 112.548 552.543 110.858 550.411 109.662C548.331 108.466 545.965 107.868 543.313 107.868C540.661 107.868 538.295 108.466 536.215 109.662C534.135 110.858 532.471 112.548 531.223 114.732C529.975 116.864 529.351 119.412 529.351 122.376C529.351 125.288 529.975 127.862 531.223 130.098C532.471 132.282 534.135 133.972 536.215 135.168C538.295 136.364 540.661 136.962 543.313 136.962ZM567.742 143.046L585.526 119.958L585.448 123.78L568.522 101.706H576.868L589.816 118.71H586.618L599.566 101.706H607.756L590.596 123.936L590.674 119.958L608.614 143.046H600.112L586.462 124.95L589.504 125.418L576.088 143.046H567.742Z" fill="url(#paint0_linear_4_75)"/>
<defs>
<linearGradient id="paint0_linear_4_75" x1="0.135254" y1="73.046" x2="863.135" y2="73.046" gradientUnits="userSpaceOnUse">
<stop offset="0.149038" stop-color="#00F6FF"/>
<stop offset="0.403846" stop-color="#EE57FF"/>
<stop offset="0.600962" stop-color="#FFA85B"/>
<stop offset="0.850962" stop-color="#58FF98"/>
</linearGradient>
</defs>
</svg>
